<?xml version="1.0" ?><!DOCTYPE svg  PUBLIC '-//W3C//DTD SVG 1.1//EN'  'http://www.w3.org/Graphics/SVG/1.1/DTD/svg11.dtd'><svg enable-background="new 0 0 128 128" height="128px" id="Layer_1" version="1.1" viewBox="0 0 128 128" width="128px" xml:space="preserve" xmlns="http://www.w3.org/2000/svg" xmlns:xlink="http://www.w3.org/1999/xlink"><circle cx="64" cy="64" fill="#50AF00" r="64"/><path d="M26.168,66.839l27.288,27.277c1.556,1.555,4.103,1.555,5.657-0.001l2.824-2.824  c1.557-1.557,1.555-4.102,0-5.657L46.3,70.004H99c2.2,0,4-1.8,4-4v-4c0-2.199-1.8-4-4-4H46.314l15.635-15.635  c1.557-1.557,1.557-4.102,0-5.656l-2.828-2.828c-1.557-1.556-4.102-1.556-5.656,0L26.167,61.184  C24.609,62.74,24.611,65.285,26.168,66.839z" fill="#FFFFFF"/></svg>