<?xml version="1.0" ?><svg viewBox="0 0 512 512" xmlns="http://www.w3.org/2000/svg"><g id="Flat"><path d="M400,24h0a16,16,0,0,1,16,16V480a0,0,0,0,1,0,0H384a0,0,0,0,1,0,0V40a16,16,0,0,1,16-16Z" style="fill:#0a4b69"/><rect height="32" rx="15.99998" ry="15.99998" style="fill:#435e99" width="176" x="312" y="456"/><path d="M384,48h48a16,16,0,0,1,16,16v0a16,16,0,0,1-16,16H384Z" style="fill:#435e99"/><path d="M448,64V240a16,16,0,0,1-16,16H232V80H432a16,16,0,0,0,16-16Z" style="fill:#537ec2"/><rect height="48" style="fill:#f57a08" width="16" x="183.75383" y="136"/><polygon points="74.097 198.149 97.22 224.231 121.734 203.662 98.61 177.58 74.097 198.149" style="fill:#f57a08"/><polygon points="281.646 180.831 261.774 203.662 286.287 224.231 306.16 201.4 281.646 180.831" style="fill:#f57a08"/><path d="M151.75383,376,99.07055,481.36656A12,12,0,0,1,88.33742,488H51.17023a12,12,0,0,1-10.73312-17.36656L87.75383,376Z" style="fill:#a87c50"/><path d="M231.15475,376,283.838,481.36656A12,12,0,0,0,294.57116,488h37.16718a12,12,0,0,0,10.73313-17.36656L295.15475,376Z" style="fill:#a87c50"/><circle cx="191.75383" cy="312" r="136" style="fill:#f3b73f"/><circle cx="191.75383" cy="312" r="120" style="fill:#f57a08"/><path d="M57.48084,139.04782H89.481a47.99994,47.99994,0,0,1,47.99994,47.99994v.00007a16,16,0,0,1-16,16h-96a16,16,0,0,1-16-16v-.00007a47.99993,47.99993,0,0,1,47.99993-47.99993Z" style="fill:#f3b73f" transform="translate(-92.75616 87.2502) rotate(-40)"/><path d="M294.02668,139.04782h32.00013a47.99993,47.99993,0,0,1,47.99993,47.99993v.00007a16,16,0,0,1-16,16h-96a16,16,0,0,1-16-16v-.00007A47.99994,47.99994,0,0,1,294.02668,139.04782Z" style="fill:#f3b73f" transform="translate(182.4799 -159.26376) rotate(40)"/><path d="M191.754,228a4.0002,4.0002,0,0,1-4-4V208a4,4,0,0,1,8,0v16A4.0002,4.0002,0,0,1,191.754,228Z" style="fill:#0a4b69"/><path d="M147.75789,239.79a3.99758,3.99758,0,0,1-3.46777-2.00049l-8-13.856a3.9998,3.9998,0,0,1,6.92773-4l8,13.856a4.00089,4.00089,0,0,1-3.46,6.00049Z" style="fill:#0a4b69"/><path d="M115.53963,272.00049a3.97981,3.97981,0,0,1-1.99609-.53662l-13.85645-8a3.9998,3.9998,0,1,1,4-6.92774l13.85645,8a4.00031,4.00031,0,0,1-2.00391,7.46436Z" style="fill:#0a4b69"/><path d="M103.754,316h-16a4,4,0,1,1,0-8h16a4,4,0,0,1,0,8Z" style="fill:#0a4b69"/><path d="M101.691,368.00049a4.00031,4.00031,0,0,1-2.00391-7.46436l13.85645-8a3.9998,3.9998,0,0,1,4,6.92774l-13.85645,8A3.98113,3.98113,0,0,1,101.691,368.00049Z" style="fill:#0a4b69"/><path d="M139.75008,406.06689a4.00089,4.00089,0,0,1-3.46-6.00048l8-13.856a3.9998,3.9998,0,1,1,6.92773,4l-8,13.856A3.99816,3.99816,0,0,1,139.75008,406.06689Z" style="fill:#0a4b69"/><path d="M191.754,420a4.0002,4.0002,0,0,1-4-4V400a4,4,0,0,1,8,0v16A4.0002,4.0002,0,0,1,191.754,420Z" style="fill:#0a4b69"/><path d="M243.75789,406.06689a3.99757,3.99757,0,0,1-3.46777-2.00048l-8-13.856a3.9998,3.9998,0,1,1,6.92773-4l8,13.856a4.00088,4.00088,0,0,1-3.46,6.00048Z" style="fill:#0a4b69"/><path d="M281.81649,368.00049a3.97982,3.97982,0,0,1-1.9961-.53662l-13.85644-8a3.9998,3.9998,0,1,1,4-6.92774l13.85644,8a4.00031,4.00031,0,0,1-2.0039,7.46436Z" style="fill:#0a4b69"/><path d="M295.754,316h-16a4,4,0,1,1,0-8h16a4,4,0,0,1,0,8Z" style="fill:#0a4b69"/><path d="M267.96785,272.00049a4.00031,4.00031,0,0,1-2.0039-7.46436l13.85644-8a3.9998,3.9998,0,1,1,4,6.92774l-13.85644,8A3.98117,3.98117,0,0,1,267.96785,272.00049Z" style="fill:#0a4b69"/><path d="M235.75008,239.79a4.00089,4.00089,0,0,1-3.46-6.00049l8-13.856a3.9998,3.9998,0,0,1,6.92773,4l-8,13.856A3.99817,3.99817,0,0,1,235.75008,239.79Z" style="fill:#0a4b69"/><path d="M89.89559,182.16211a4,4,0,0,1-2.57324-7.06445l6.12841-5.14209a4.0003,4.0003,0,1,1,5.14258,6.1289l-6.12842,5.14209A3.98683,3.98683,0,0,1,89.89559,182.16211Z" style="fill:#f0cd81"/><path d="M108.28084,166.73535a4,4,0,0,1-2.57324-7.064l8.97217-7.52881a27.97015,27.97015,0,0,0-14.46045-6.792,3.99991,3.99991,0,0,1,1.19433-7.91016,35.94589,35.94589,0,0,1,22.186,12.439,3.99954,3.99954,0,0,1-.49268,5.63526l-12.25683,10.28467A3.98474,3.98474,0,0,1,108.28084,166.73535Z" style="fill:#f0cd81"/><path d="M41.443,186.65088a4.00244,4.00244,0,0,1-3.76074-5.36231,35.94121,35.94121,0,0,1,10.686-15.27685l12.25684-10.28467a3.99993,3.99993,0,0,1,5.14258,6.12793L53.51082,172.13965a27.93144,27.93144,0,0,0-8.30615,11.87158A4.00187,4.00187,0,0,1,41.443,186.65088Z" style="fill:#f0cd81"/><path d="M42.63143,211.38037a4.00006,4.00006,0,0,1-3.6128-2.27832,35.82761,35.82761,0,0,1-2.95849-9.27344,4,4,0,1,1,7.88086-1.375,27.83706,27.83706,0,0,0,2.29736,7.20313,4.002,4.002,0,0,1-3.60693,5.72363Z" style="fill:#f0cd81"/><path d="M311.99666,197.58936a3.98373,3.98373,0,0,1-2.56933-.936l-6.12793-5.14258a3.99992,3.99992,0,1,1,5.14257-6.12793l6.12793,5.14258a4,4,0,0,1-2.57324,7.064Z" style="fill:#f0cd81"/><path d="M336.51229,218.1582a4.00037,4.00037,0,0,1-2.57129-.936L321.68416,206.9375a3.99993,3.99993,0,0,1,5.14258-6.12793l8.97217,7.52832a27.96455,27.96455,0,0,0,4.17773-15.42041,4,4,0,0,1,7.99756-.19727,35.94477,35.94477,0,0,1-8.39795,24.00928,4.00125,4.00125,0,0,1-2.71533,1.41358C336.74471,218.15332,336.628,218.1582,336.51229,218.1582Z" style="fill:#f0cd81"/><path d="M320.30916,162.791a3.98373,3.98373,0,0,1-2.56933-.936l-12.25635-10.28467a27.9333,27.9333,0,0,0-13.1333-6.11816,4,4,0,0,1,1.375-7.88086,35.93993,35.93993,0,0,1,16.90039,7.8706l12.25683,10.28516a4,4,0,0,1-2.57324,7.064Z" style="fill:#f0cd81"/><path d="M268.89315,150.97363a4.0004,4.0004,0,0,1-2.32715-7.25634,35.82668,35.82668,0,0,1,8.61865-4.52442,4.00017,4.00017,0,1,1,2.72363,7.52246,27.81745,27.81745,0,0,0-6.69482,3.51367A3.98308,3.98308,0,0,1,268.89315,150.97363Z" style="fill:#f0cd81"/><rect height="16" rx="7.99999" ry="7.99999" style="fill:#f3b73f" width="48" x="167.75383" y="120"/><path d="M163.81618,343.61a6.00484,6.00484,0,0,1-5.3,9l-26.05-.44a6.00011,6.00011,0,0,1-5.13995-8.91l12.63995-22.78a6.00558,6.00558,0,0,1,10.45-.09l2.7,4.68,27.71-16,8,13.86-27.71,16Z" style="fill:#72baaa"/><path d="M199.75618,248v50.15a15.99139,15.99139,0,1,1-16-.01V248h-5.41a6.001,6.001,0,0,1-5.13995-9.09l13.4-22.34a6.00331,6.00331,0,0,1,10.29,0l13.41,22.34a6.00847,6.00847,0,0,1-5.15,9.09Z" style="fill:#b1cdb4"/><circle cx="192.24617" cy="312" r="8" style="fill:#72baaa"/></g></svg>