<?xml version="1.0" ?><svg data-name="Layer 3" id="Layer_3" viewBox="0 0 24 24" xmlns="http://www.w3.org/2000/svg" xmlns:xlink="http://www.w3.org/1999/xlink"><defs><linearGradient gradientUnits="userSpaceOnUse" id="linear-gradient" x1="4.932" x2="19.068" y1="4.932" y2="19.068"><stop offset="0" stop-color="#6be8a7"/><stop offset="1" stop-color="#01b59c"/></linearGradient><linearGradient gradientUnits="userSpaceOnUse" id="linear-gradient-2" x1="10.658" x2="14.187" y1="9.929" y2="13.458"><stop offset="0" stop-color="#effff4"/><stop offset="1" stop-color="#d1ffec"/></linearGradient></defs><circle cx="12" cy="12" r="10" style="fill:url(#linear-gradient)"/><path d="M10.841,16A1.936,1.936,0,0,1,9.4,15.348a1.025,1.025,0,0,1-.087-.11L8.173,13.562a1,1,0,0,1,1.655-1.123L10.884,14l3.259-5.511a1,1,0,1,1,1.713,1.033l-3.323,5.507a1.976,1.976,0,0,1-1.5.966C10.965,16,10.9,16,10.841,16Z" style="fill:url(#linear-gradient-2)"/></svg>