<?xml version="1.0" ?><svg viewBox="0 0 512 512" xmlns="http://www.w3.org/2000/svg"><g id="flat"><path d="M40,136H472a0,0,0,0,1,0,0V456a16,16,0,0,1-16,16H56a16,16,0,0,1-16-16V136A0,0,0,0,1,40,136Z" style="fill:#eaeae8"/><rect height="32" style="fill:#026ca2" width="32" x="192" y="192"/><path d="M56,72H456a16,16,0,0,1,16,16v48a0,0,0,0,1,0,0H40a0,0,0,0,1,0,0V88A16,16,0,0,1,56,72Z" style="fill:#0296e5"/><path d="M232,112H184a8,8,0,0,1,0-16h48a8,8,0,0,1,0,16Z" style="fill:#026ca2"/><path d="M136,112H88a8,8,0,0,1,0-16h48a8,8,0,0,1,0,16Z" style="fill:#026ca2"/><path d="M424,112H376a8,8,0,0,1,0-16h48a8,8,0,0,1,0,16Z" style="fill:#026ca2"/><path d="M328,112H280a8,8,0,0,1,0-16h48a8,8,0,0,1,0,16Z" style="fill:#026ca2"/><circle cx="208" cy="320" r="104" style="fill:#0296e5"/><circle cx="208" cy="320" r="72" style="fill:#fbfdff"/><path d="M160,320a8,8,0,0,1-8,8H136.44a72.947,72.947,0,0,1,0-16H152A8,8,0,0,1,160,320Z" style="fill:#fbfdff"/><path d="M216,248.44V264a8,8,0,0,1-16,0V248.44a72.947,72.947,0,0,1,16,0Z" style="fill:#fbfdff"/><path d="M216,376v15.56a72.947,72.947,0,0,1-16,0V376a8,8,0,0,1,16,0Z" style="fill:#fbfdff"/><rect height="24" rx="12" style="fill:#0296e5" width="64" x="176" y="168"/><path d="M176,360a8,8,0,0,1-5.657-13.657L200,316.687V288a8,8,0,0,1,16,0v32a8,8,0,0,1-2.343,5.657l-32,32A7.974,7.974,0,0,1,176,360Z" style="fill:#0296e5"/><path d="M160,320a8,8,0,0,1-8,8H136.44a72.947,72.947,0,0,1,0-16H152A8,8,0,0,1,160,320Z" style="fill:#cbcbcb"/><path d="M216,248.44V264a8,8,0,0,1-16,0V248.44a72.947,72.947,0,0,1,16,0Z" style="fill:#cbcbcb"/><path d="M216,376v15.56a72.947,72.947,0,0,1-16,0V376a8,8,0,0,1,16,0Z" style="fill:#cbcbcb"/><rect height="56" style="fill:#fbb540" width="120" x="264" y="272"/><path d="M328,248h-8a8,8,0,0,1,0-16h8a8,8,0,0,1,0,16Z" style="fill:#f7ba61"/><path d="M368,248H352a8,8,0,0,1,0-16h16a8,8,0,0,1,0,16Z" style="fill:#f7ba61"/><rect height="64" rx="16" style="fill:#cbcbcb" width="32" x="192" y="40"/><rect height="64" rx="16" style="fill:#cbcbcb" width="32" x="96" y="40"/><rect height="64" rx="16" style="fill:#cbcbcb" width="32" x="384" y="40"/><rect height="64" rx="16" style="fill:#cbcbcb" width="32" x="288" y="40"/><path d="M380,424H260a12,12,0,0,1-12-12V316.079a12,12,0,0,1,12.079-12l27.921.184,24,16,69.967-.231a10,10,0,0,1,10.033,10V412A12,12,0,0,1,380,424Z" style="fill:#d18d28"/><path d="M408,352H376a8,8,0,0,1,0-16h32a8,8,0,0,1,0,16Z" style="fill:#f7ba61"/><path d="M416,416H376a8,8,0,0,1,0-16h40a8,8,0,0,1,0,16Z" style="fill:#f7ba61"/><path d="M432,384H376a8,8,0,0,1,0-16h56a8,8,0,0,1,0,16Z" style="fill:#f7ba61"/></g></svg>