<?xml version="1.0" ?><!DOCTYPE svg  PUBLIC '-//W3C//DTD SVG 1.1//EN'  'http://www.w3.org/Graphics/SVG/1.1/DTD/svg11.dtd'><svg enable-background="new 0 0 64 64" height="64px" version="1.1" viewBox="0 0 64 64" width="64px" xml:space="preserve" xmlns="http://www.w3.org/2000/svg" xmlns:xlink="http://www.w3.org/1999/xlink"><g id="_x35_0_fairy_x2C__wing_x2C__fairy_x2C__tale_x2C__legend_x2C__fantasy"/><g id="_x34_9_gingerbread_x2C__house_x2C__fairy_x2C__tale_x2C__legend_x2C__fantasy"/><g id="_x34_8_torch_x2C__fire_x2C__fairy_x2C__tale_x2C__legend_x2C__fantasy"/><g id="_x34_7_armor_x2C__knight_x2C__fairy_x2C__tale_x2C__legend_x2C__fantasy"/><g id="_x34_6_jester_x2C__joker_x2C__joke_x2C__fairy_x2C__tale_x2C__legend_x2C__fantasy"/><g id="_x34_5_shield_x2C__knight_x2C__crown_x2C__fairy_x2C__tale_x2C__legend_x2C__fantasy"/><g id="_x34_4_spear_x2C__knight_x2C__weapon_x2C__duel_x2C__war_x2C__fairy_x2C__tale"/><g id="_x34_3_coach_x2C__pumpkin_x2C__magic_x2C__fairy_x2C__tale_x2C__legend_x2C__fantasy"/><g id="_x34_2_sword_x2C__magic_x2C__fairy_x2C__tale_x2C__legend_x2C__fantasy"/><g id="_x34_1_dagger_x2C__blood_x2C__weapon_x2C__fairy_x2C__tale_x2C__legend_x2C__fantasy"/><g id="_x34_0_ax_x2C__weapon_x2C__war_x2C__fairy_x2C__tale_x2C__legend_x2C__fantasy"/><g id="_x33_9_ax_x2C__weapon_x2C__fairy_x2C__tale_x2C__legend_x2C__fantasy"/><g id="_x33_8_standard_x2C__flag_x2C__crown_x2C__fairy_x2C__tale_x2C__legend_x2C__fantasy"/><g id="_x33_7_trumpet_x2C__flag_x2C__crown_x2C__fairy_x2C__tale_x2C__legend_x2C__fantasy"/><g id="_x33_6_flag_x2C__crown_x2C__fairy_x2C__tale_x2C__legend_x2C__fantasy"/><g id="_x33_5_bow_x2C__arrow_x2C__weapon_x2C__fairy_x2C__tale_x2C__legend_x2C__fantasy"/><g id="_x33_4_crossbow_x2C__arrow_x2C__weapon_x2C__fairy_x2C__tale_x2C__legend_x2C__fantasy"/><g id="_x33_3_helmet_x2C__knight_x2C__fairy_x2C__tale_x2C__legend_x2C__fantasy"/><g id="_x33_2_palace_x2C__castle_x2C__fairy_x2C__tale_x2C__legend_x2C__fantasy"/><g id="_x33_1_stained_x2C__glass_x2C__window_x2C__sword_x2C__fairy_x2C__tale_x2C__legend"/><g id="_x33_0_little_x2C__red_x2C__riding_x2C__hood_x2C__girl_x2C__fairy_x2C__tale"/><g id="_x32_9_medusa_x2C__snake_x2C__hair_x2C__fairy_x2C__tale_x2C__legend_x2C__fantasy"/><g id="_x32_8_tower_x2C__hair_x2C__fairy_x2C__tale_x2C__legend_x2C__fantasy"/><g id="_x32_7_mirror_x2C__magic_x2C__fairy_x2C__tale_x2C__legend_x2C__fantasy"/><g id="_x32_6_ring_x2C__magic_x2C__diamond_x2C__fairy_x2C__tale_x2C__legend_x2C__fantasy"/><g id="_x32_5_sword_x2C__stone_x2C__magic_x2C__fairy_x2C__tale_x2C__legend_x2C__fantasy"/><g id="_x32_4_wizard_x2C__magician_x2C__staff_x2C__fairy_x2C__tale_x2C__legend_x2C__fantasy"/><g id="_x32_3_witch_x2C__cat_x2C__potion_x2C__fairy_x2C__tale_x2C__legend_x2C__fantasy"/><g id="_x32_2_vampire_x2C__fangs_x2C__fairy_x2C__tale_x2C__legend_x2C__fantasy"/><g id="_x32_1_leprechaun_x2C__gold_x2C__coin_x2C__fairy_x2C__tale_x2C__legend_x2C__fantasy"/><g id="_x32_0_rainbow_x2C__bird_x2C__sun_x2C__fairy_x2C__tale_x2C__legend_x2C__fantasy"/><g id="_x31_9_satyr_x2C__horn_x2C__fairy_x2C__tale_x2C__legend_x2C__fantasy"/><g id="_x31_8_lamp_x2C__jinn_x2C__magic_x2C__fairy_x2C__tale_x2C__legend_x2C__fantasy"/><g id="_x31_7_frog_x2C__princess_x2C__crown_x2C__fairy_x2C__tale_x2C__legend_x2C__fantasy"/><g id="_x31_6_royal_x2C__decree_x2C__scroll_x2C__fairy_x2C__tale_x2C__legend_x2C__fantasy"/><g id="_x31_5_cup_x2C__drink_x2C__gold_x2C__fairy_x2C__tale_x2C__legend_x2C__fantasy"/><g id="_x31_4_shield_x2C__sword_x2C__fairy_x2C__tale_x2C__legend_x2C__fantasy"><g><path d="M7.36,1.83C7.91,2.439,8.1,3.24,7.95,3.99c-0.101,0.51-0.36,1-0.78,1.37c-0.42,0.38-0.94,0.59-1.46,0.63    C4.96,6.05,4.18,5.78,3.64,5.17C2.72,4.14,2.8,2.56,3.83,1.64S6.439,0.8,7.36,1.83z" fill="#FFCE54"/><polygon fill="#FFCE54" points="15.899,12.87 20.68,8.59 21.189,12.16 18.27,14.77 15.29,17.439 12.38,20.05 8.88,19.15     13.66,14.87   "/><path d="M60.17,1.64c1.03,0.92,1.11,2.5,0.19,3.53c-0.54,0.61-1.32,0.88-2.07,0.82    c-0.521-0.04-1.04-0.25-1.46-0.63c-0.42-0.37-0.681-0.86-0.78-1.37c-0.15-0.75,0.04-1.551,0.59-2.16    C57.56,0.8,59.14,0.72,60.17,1.64z" fill="#FFCE54"/><path d="M11.86,8.36L7.95,3.99c-0.101,0.51-0.36,1-0.78,1.37c-0.42,0.38-0.94,0.59-1.46,0.63l1.91,2.14l2.83,3.16    l3.21,3.58l2.239-2l-1.21-1.351L11.86,8.36z" fill="#656D78"/><path d="M56.83,5.36c-0.42-0.37-0.681-0.86-0.78-1.37l-3.91,4.37l-2.83,3.159L48.1,12.87l2.24,2l3.21-3.58    l2.83-3.17l1.91-2.13C57.77,5.95,57.25,5.74,56.83,5.36z" fill="#656D78"/><polygon fill="#FFCE54" points="48.1,12.87 50.34,14.87 55.12,19.15 51.62,20.05 48.71,17.439 45.729,14.77 42.81,12.16     43.32,8.59   "/><path d="M36.24,35.76C35.149,34.67,33.649,34,32,34v-6V18c2.03,1.729,4.7,2.97,7.399,3.86    c1.471,0.479,2.95,0.859,4.33,1.149C47.76,23.85,51,24,51,24c0,6.27-0.65,11.55-1.7,16H38C38,38.35,37.33,36.85,36.24,35.76z" fill="#656D78"/><path d="M32,18v10v6c-1.65,0-3.15,0.67-4.24,1.76S26,38.35,26,40H14.7c-1.051-4.45-1.7-9.73-1.7-16    c0,0,3.24-0.15,7.27-0.99c1.38-0.29,2.86-0.67,4.33-1.149C27.3,20.979,29.97,19.74,32,18z" fill="#ED5565"/><path d="M27.76,44.24C28.85,45.33,30.35,46,32,46v4v13c0,0-7.63-2.01-13.22-12.14c-0.66-1.19-1.29-2.49-1.87-3.91    C16.07,44.9,15.31,42.59,14.7,40H26C26,41.65,26.67,43.15,27.76,44.24z" fill="#656D78"/><path d="M36.24,44.24C37.33,43.15,38,41.65,38,40h11.3c-0.61,2.59-1.37,4.9-2.21,6.95    c-0.58,1.42-1.21,2.72-1.87,3.91C39.63,60.99,32,63,32,63V50v-4C33.649,46,35.149,45.33,36.24,44.24z" fill="#ED5565"/><path d="M47.09,46.95l10.88,12.17l-0.16,2.83l-2.83-0.16l-9.76-10.93C45.88,49.67,46.51,48.37,47.09,46.95z" fill="#E6E9ED"/><path d="M48.71,17.439l-4.97,5.54l-0.011,0.03c-1.38-0.29-2.859-0.67-4.33-1.149l0.011-0.04l6.319-7.051    L48.71,17.439z" fill="#E6E9ED"/><path d="M24.59,21.82l0.01,0.04c-1.47,0.479-2.95,0.859-4.33,1.149l-0.01-0.03l-4.97-5.54l2.979-2.67L24.59,21.82z    " fill="#E6E9ED"/><path d="M18.78,50.86L9.02,61.79l-2.83,0.16L6.03,59.12l10.88-12.17C17.49,48.37,18.12,49.67,18.78,50.86z" fill="#E6E9ED"/><path d="M50.935,23.996c-0.007,0-0.008,0-0.016,0c-0.242-0.014-1.075-0.066-2.291-0.204    c-0.001-0.001-0.002-0.001-0.002-0.001c-0.486-0.055-1.031-0.123-1.625-0.209h-0.002C46.993,29.818,46.345,35.57,45.3,40h4    c1.05-4.45,1.7-9.73,1.7-16C51,24,50.974,23.999,50.935,23.996z" fill="#434A54"/><path d="M43.09,46.95c-0.58,1.42-1.21,2.72-1.87,3.91c-2.984,5.409-6.545,8.494-9.22,10.202V63    c0,0,7.63-2.01,13.22-12.14c0.66-1.19,1.29-2.49,1.87-3.91c0.84-2.05,1.6-4.36,2.21-6.95h-4C44.689,42.59,43.93,44.9,43.09,46.95z    " fill="#DA4453"/><path d="M30,62.194c0.003,0.001,0.006,0.003,0.008,0.004c0.076,0.037,0.146,0.068,0.218,0.103    c0.123,0.059,0.243,0.113,0.355,0.163c0.078,0.034,0.158,0.07,0.23,0.101c0.136,0.058,0.263,0.11,0.377,0.154    c0.072,0.028,0.137,0.053,0.199,0.076c0.063,0.022,0.123,0.045,0.176,0.063c0.066,0.023,0.125,0.044,0.177,0.061    c0.054,0.018,0.108,0.036,0.145,0.047c0.025,0.008,0.048,0.015,0.064,0.02C31.969,62.991,32,63,32,63v-1.938    C31.255,61.538,30.575,61.913,30,62.194z" fill="#434A54"/><polygon fill="#434A54" points="50.253,10.467 49.31,11.52 48.379,12.559 52.612,12.335 53.55,11.29 54.492,10.235   "/><polygon fill="#434A54" points="53.081,7.309 52.14,8.36 51.197,9.412 55.437,9.177 56.38,8.12 57.306,7.088   "/><polygon fill="#434A54" points="14.689,11.52 13.741,10.461 9.479,10.205 10.45,11.29 11.394,12.342 15.652,12.595   "/><polygon fill="#434A54" points="11.86,8.36 10.918,7.307 6.683,7.079 7.62,8.13 8.553,9.171 12.775,9.382   "/><g><path d="M21.292,40.707C21.111,40.526,21,40.276,21,40c0-0.552,0.447-1,1-1h5c0.553,0,1,0.448,1,1     c0,0.553-0.447,1-1,1h-5C21.724,41,21.474,40.889,21.292,40.707z" fill="#F6BB42"/></g><g><path d="M36.292,40.707c-0.181-0.181-0.293-0.431-0.293-0.707c0-0.552,0.447-1,1-1h4.999c0.553,0,1,0.448,1,1     c0,0.553-0.447,1-0.999,1h-5C36.723,41,36.473,40.889,36.292,40.707z" fill="#F6BB42"/></g><g><path d="M24.927,48.072c-0.255-0.001-0.511-0.099-0.706-0.294c-0.39-0.39-0.391-1.023,0.001-1.415l3.535-3.535     c0.391-0.391,1.023-0.391,1.414,0s0.391,1.023,0,1.414l-3.535,3.535C25.439,47.974,25.185,48.072,24.927,48.072z" fill="#F6BB42"/></g><g><path d="M35.534,37.465c-0.256,0-0.512-0.098-0.707-0.293c-0.391-0.39-0.391-1.023,0-1.414l3.535-3.535     c0.391-0.391,1.023-0.39,1.414,0c0.391,0.391,0.391,1.023,0,1.414l-3.535,3.535C36.046,37.367,35.79,37.466,35.534,37.465z" fill="#F6BB42"/></g><g><path d="M32.706,50.709c-0.182,0.18-0.432,0.292-0.707,0.291c-0.552,0.001-1-0.447-1-1l-0.001-5     c0.001-0.553,0.448-1,1-1c0.553,0,1.001,0.447,1,1l0.001,5C32.998,50.277,32.888,50.527,32.706,50.709z" fill="#F6BB42"/></g><g><path d="M32.706,35.709c-0.182,0.18-0.432,0.292-0.708,0.292c-0.552,0.001-0.999-0.448-0.999-0.999v-5     c-0.001-0.553,0.447-1,1-1c0.552,0,0.999,0.447,1,1l-0.001,4.999C32.998,35.277,32.888,35.527,32.706,35.709z" fill="#F6BB42"/></g><g><path d="M40.071,47.072c-0.002,0.256-0.1,0.512-0.295,0.707c-0.389,0.391-1.023,0.391-1.414-0.001l-3.536-3.534     c-0.39-0.393-0.391-1.024-0.001-1.414c0.392-0.392,1.025-0.393,1.415,0l3.536,3.534C39.972,46.562,40.071,46.816,40.071,47.072z" fill="#F6BB42"/></g><g><path d="M29.464,36.467c-0.001,0.255-0.098,0.512-0.294,0.707c-0.39,0.391-1.022,0.389-1.413,0l-3.535-3.536     c-0.392-0.39-0.391-1.022,0-1.414c0.391-0.39,1.022-0.39,1.414,0l3.534,3.536C29.365,35.955,29.464,36.209,29.464,36.467z" fill="#F6BB42"/></g><path d="M27.76,35.76C28.85,34.67,30.35,34,32,34c1.649,0,3.149,0.67,4.24,1.76C37.33,36.85,38,38.35,38,40    s-0.67,3.15-1.76,4.24C35.149,45.33,33.649,46,32,46c-1.65,0-3.15-0.67-4.24-1.76S26,41.65,26,40S26.67,36.85,27.76,35.76z" fill="#FFCE54"/></g></g><g id="_x31_3_potion_x2C__bottle_x2C__magic_x2C__fairy_x2C__tale_x2C__legend_x2C__fantasy"/><g id="_x31_2_mermaid_x2C__fish_x2C__fairy_x2C__tale_x2C__legend_x2C__fantasy"/><g id="_x31_1_knight_x2C__helmet_x2C__fairy_x2C__tale_x2C__legend_x2C__fantasy"/><g id="_x31_0_princess_x2C__crown_x2C__fairy_x2C__tale_x2C__legend_x2C__fantasy"/><g id="_x39__queen_x2C__crown_x2C__fairy_x2C__tale_x2C__legend_x2C__fantasy"/><g id="_x38__elf_x2C__flag_x2C__fairy_x2C__tale_x2C__legend_x2C__fantasy"/><g id="_x37__castle_x2C__flag_x2C__fairy_x2C__tale_x2C__legend_x2C__fantasy"/><g id="_x36__unicorn_x2C__horn_x2C__horse_x2C__fairy_x2C__tale_x2C__legend_x2C__fantasy"/><g id="_x35__book_x2C__magic_x2C__fairy_x2C__tale_x2C__legend_x2C__fantasy"/><g id="_x34__dragon_x2C__fire_x2C__fairy_x2C__tale_x2C__legend_x2C__fantasy"/><g id="_x33__sword_x2C__duel_x2C__war_x2C__fairy_x2C__tale_x2C__legend_x2C__fantasy"/><g id="_x32__crown_x2C__king_x2C__fairy_x2C__tale_x2C__legend_x2C__fantasy"/><g id="_x31__king_x2C__crown_x2C__fairy_x2C__tale_x2C__legend_x2C__fantasy"/></svg>