<?xml version="1.0" ?><svg viewBox="0 0 64 64" xmlns="http://www.w3.org/2000/svg"><title/><g data-name="13 cool emoji" id="_13_cool_emoji"><path d="M34.458,1.6l7.765,16.472a2.755,2.755,0,0,0,2.064,1.569L61.65,22.281a2.906,2.906,0,0,1,1.519,4.894L50.605,40a2.952,2.952,0,0,0-.788,2.54l2.966,18.1a2.769,2.769,0,0,1-3.977,3.024L33.275,55.117a2.628,2.628,0,0,0-2.55,0L15.194,63.664a2.769,2.769,0,0,1-3.977-3.024l2.966-18.1A2.952,2.952,0,0,0,13.4,40L.831,27.175A2.906,2.906,0,0,1,2.35,22.281L19.713,19.64a2.755,2.755,0,0,0,2.064-1.569L29.542,1.6A2.689,2.689,0,0,1,34.458,1.6Z" style="fill:#ffcf08"/><path d="M44.22,34.67a6.926,6.926,0,0,1-.99.37,9.671,9.671,0,0,1-2.69.39,8.428,8.428,0,0,1-1.01-.06h-.01a9.051,9.051,0,0,1-4.65-1.92,8.76,8.76,0,0,1-1.4-1.39,3.214,3.214,0,0,1-.7-2.06H30.88a2.934,2.934,0,0,1-.6,1.88,9.068,9.068,0,0,1-5.73,3.42,9.637,9.637,0,0,1-1.52.12,9.212,9.212,0,0,1-2.64-.38,8.526,8.526,0,0,1-.89-.32,9.065,9.065,0,0,1-5.28-10.93,1,1,0,0,1,1.24-.67l6.86,2.05,4.79,1.44,1.53.46a3.128,3.128,0,0,1,1.43.93H33a.91.91,0,0,1,.46.13,3.039,3.039,0,0,1,1.52-1.06l1.95-.58,5.72-1.72,4.93-1.48.57-.17a.962.962,0,0,1,.76.08.974.974,0,0,1,.48.59A9.052,9.052,0,0,1,44.22,34.67Z" style="fill:#ff7438"/><path d="M45,41.5a5.306,5.306,0,0,1-1.64,3.65h-.01C41.13,47.45,36.88,49,32,49c-4.53,0-8.52-1.34-10.84-3.36A5.575,5.575,0,0,1,19,41.5c0-4.14,5.82-1.5,13-1.5S45,37.36,45,41.5Z" style="fill:#fff"/><path d="M27.11,26.61,24.55,35.3a9.637,9.637,0,0,1-1.52.12,9.212,9.212,0,0,1-2.64-.38,8.526,8.526,0,0,1-.89-.32l2.82-9.55Z" style="fill:#fff"/><path d="M42.65,24.77l-3.12,10.6h-.01a9.051,9.051,0,0,1-4.65-1.92l2.06-6.96Z" style="fill:#fff"/><path d="M44.22,34.67l3.36-11.38.57-.17a.962.962,0,0,1,.76.08.974.974,0,0,1,.48.59A9.052,9.052,0,0,1,44.22,34.67Z" style="fill:#fff"/><path d="M43.35,45.15C41.13,47.45,36.88,49,32,49c-4.53,0-8.52-1.34-10.84-3.36C23.64,44.65,28.01,44,33,44A41,41,0,0,1,43.35,45.15Z" style="fill:#ff7438"/></g></svg>