<?xml version="1.0" ?><svg id="Layer_1" style="enable-background:new 0 0 100 100;" version="1.1" viewBox="0 0 100 100" xml:space="preserve" xmlns="http://www.w3.org/2000/svg" xmlns:xlink="http://www.w3.org/1999/xlink"><path d="M61.1,12.4c-17.1,0-25,9.9-27.6,13.2c-1.6,2-1.3,5,0.8,6.5c0.8,0.7,1.8,1,2.9,1c1.4,0,2.8-0.6,3.7-1.8  c3.6-4.5,9.1-9.7,20.2-9.7c15.5,0,28.1,12.6,28.1,28.1S76.6,77.8,61.1,77.8c-11.2,0-16.7-5.2-20.2-9.7v0c-1.6-2-4.5-2.4-6.6-0.8  c-2,1.6-2.4,4.5-0.8,6.6c2.6,3.3,10.5,13.2,27.6,13.2c20.6,0,37.4-16.8,37.4-37.4S81.7,12.4,61.1,12.4z" id="XMLID_2_"/><path d="M17.2,54.4h46.3c2.6,0,4.7-2.1,4.7-4.7c0-2.6-2.1-4.7-4.7-4.7H17.3l6.6-6.6c0.9-0.9,1.4-2.1,1.4-3.3  c0-1.2-0.5-2.4-1.4-3.3c-1.8-1.8-4.8-1.8-6.6,0L2.8,46.5c-1.8,1.8-1.8,4.8,0,6.6l14.5,14.7c0.9,0.9,2.1,1.4,3.3,1.4  c1.2,0,2.4-0.5,3.3-1.3c0.9-0.9,1.4-2,1.4-3.3c0-1.2-0.5-2.4-1.3-3.3L17.2,54.4z" id="XMLID_1_"/></svg>