<?xml version="1.0" ?><svg enable-background="new 0 0 63.08 63.08" height="63.08px" id="Circles" version="1.1" viewBox="0 0 63.08 63.08" width="63.08px" xml:space="preserve" xmlns="http://www.w3.org/2000/svg" xmlns:xlink="http://www.w3.org/1999/xlink"><circle cx="31.54" cy="31.54" fill="#FFB51F" r="31.54"/><path d="M31.95,17.16c-9.82,0-17.79,6.4-17.79,14.3c0,3.48,1.55,6.67,4.12,9.14l-4.96,5.31l11.13-1.5  c2.28,0.85,4.82,1.35,7.49,1.35c9.83,0,17.79-6.4,17.79-14.3C49.75,23.56,41.78,17.16,31.95,17.16z M34.46,40.4h-4.91v-4.24h4.91  V40.4z M38.75,27.96c0,3.14-2.09,4.48-4.86,5.16l-0.3,1.6h-3.01l-0.62-4.16l0.2-0.22c2.89-0.25,3.91-0.92,3.91-1.99v-0.03  c0-0.85-0.67-1.37-1.87-1.37c-1.17,0-2.47,0.6-3.64,1.65l-2.49-3.29c1.52-1.52,3.59-2.62,6.45-2.62c3.67,0,6.23,1.99,6.23,5.23  V27.96z" fill="#FFFFFF"/></svg>