<?xml version="1.0" ?><svg id="Layer_1" style="enable-background:new 0 0 128 128;" version="1.1" viewBox="0 0 128 128" xml:space="preserve" xmlns="http://www.w3.org/2000/svg" xmlns:xlink="http://www.w3.org/1999/xlink"><style type="text/css">
	.st0{fill:#FFBE35;}
	.st1{fill:#FFFFFF;}
	.st2{fill:#EEEEEC;}
	.st3{fill:none;stroke:#31352E;stroke-width:6;stroke-linecap:round;stroke-linejoin:round;stroke-miterlimit:10;}
	.st4{fill:#34B6F7;}
	.st5{fill:#1EC656;}
	.st6{fill:#E02F2F;}
	.st7{fill:#0E76A8;}
	.st8{fill:#43C1E8;}
	.st9{fill:#3A589B;}
	.st10{fill:#42B6E3;}
	.st11{fill:#5ACCF9;}
	.st12{fill:#299FCE;}
	.st13{fill:#4D4D4D;}
	.st14{fill:#F2CEA5;}
	.st15{fill:#F8E6D2;}
	.st16{fill:#59757F;}
	.st17{fill:#E7EDE4;}
	.st18{fill:#F78F8F;}
	.st19{fill:#8092A8;}
	.st20{fill:#91A7BC;}
	.st21{fill:#6B7A89;}
	.st22{fill:#536A7A;}
	.st23{fill:#EFEFEF;}
	.st24{fill:#F7F7F7;}
	.st25{fill:#546E7A;}
	.st26{fill:#668089;}
	.st27{fill:#FF790B;}
	.st28{fill:#FFA13B;}
	.st29{fill:#8C8C8C;}
	.st30{fill:#A5A5A5;}
	.st31{fill:#FCE1C8;}
	.st32{fill:#FBD734;}
	.st33{fill:#F9BF2C;}
	.st34{fill:#D32322;}
	.st35{fill:#EFEFE7;}
	.st36{fill:#E2E2E2;}
	.st37{fill:#A0A0A0;}
	.st38{fill:#939393;}
	.st39{fill:#B5B5B5;}
	.st40{fill:#DBDBDB;}
	.st41{fill:none;stroke:#31352E;stroke-width:6;stroke-miterlimit:10;}
	.st42{fill:#BF4141;}
	.st43{fill:#E74A4A;}
	.st44{fill:none;stroke:#31352E;stroke-width:6;stroke-linejoin:round;stroke-miterlimit:10;}
	.st45{fill:#FFBD5D;}
	.st46{fill:#E8A656;}
	.st47{fill:#FFC880;}
	.st48{fill:#FFDDBB;}
	.st49{fill:#8CD717;}
	.st50{fill:#B0E05C;}
	.st51{fill:#75B61E;}
	.st52{fill:#0CA8FD;}
	.st53{fill:#72D2FC;}
	.st54{fill:#FF7A0B;}
	.st55{fill:#FF9343;}
	.st56{fill:#D7BF8F;}
	.st57{fill:#816840;}
	.st58{fill:#37BA13;}
	.st59{fill:#11EC4A;}
	.st60{fill:#16B14B;}
	.st61{fill:#15BE54;}
	.st62{fill:#3CF768;}
	.st63{fill:#F9F9FB;}
	.st64{fill:#3FA9F7;}
	.st65{fill:#3796D1;}
	.st66{fill:#43B7FF;}
	.st67{fill:#C5DDC3;}
	.st68{fill:none;stroke:#FFFFFF;stroke-width:6;stroke-linecap:round;stroke-miterlimit:10;}
	.st69{fill:#FFE36E;}
	.st70{fill:#FCECBB;}
	.st71{fill:#FDC00F;}
	.st72{fill:#F4F4F4;}
	.st73{fill:#1CA5F9;}
	.st74{fill:#D3D3D3;}
	.st75{fill:none;stroke:#31352E;stroke-width:6;stroke-linecap:round;stroke-miterlimit:10;}
	.st76{fill:#38FF5F;}
	.st77{fill:#31352E;}
	.st78{fill:none;stroke:#31352E;stroke-width:4;stroke-linecap:round;stroke-miterlimit:10;}
	.st79{fill:#F6F3E0;}
	.st80{fill:#DFDCCB;}
	.st81{fill:#30342D;}
	.st82{fill:none;stroke:#31352E;stroke-width:3;stroke-linecap:round;stroke-linejoin:round;stroke-miterlimit:10;}
	.st83{fill:#F5A557;}
	.st84{fill:#4E5B68;}
	.st85{fill:#96DB00;}
	.st86{fill:#FFBC00;}
	.st87{fill:#D80909;}
	.st88{fill:#FF3D00;}
	.st89{fill:#FF794F;}
	.st90{fill:#FFD80A;}
	.st91{fill:#00D157;}
	.st92{fill:#FFF17A;}
	.st93{fill:#87E08A;}
	.st94{fill:#FEAF2C;}
	.st95{fill:#D95141;}
	.st96{fill:#C95047;}
	.st97{fill:#D8D8D8;}
	.st98{fill:#7F5C38;}
	.st99{fill:#936C4A;}
	.st100{fill:#4B636B;}
	.st101{fill:#6E8188;}
	.st102{fill:#8FA3AD;stroke:#31352E;stroke-width:6;stroke-linecap:round;stroke-linejoin:round;stroke-miterlimit:10;}
	.st103{fill:#4F4F4F;}
	.st104{fill:#5B5B5B;}
	.st105{fill:#FFEF2C;}
	.st106{fill:#FFFDD2;}
	.st107{fill:#E0E0E0;}
	.st108{fill:none;stroke:#30342D;stroke-width:6;stroke-linecap:round;stroke-linejoin:round;stroke-miterlimit:10;}
	.st109{fill:none;stroke:#FFFFFF;stroke-width:6;stroke-linecap:round;stroke-linejoin:round;stroke-miterlimit:10;}
	.st110{fill:#F5B400;}
	.st111{fill:#F4D37D;}
	.st112{fill:#F2F2F2;}
	.st113{fill:#DEDBCA;}
	.st114{fill:none;stroke:#31352E;stroke-width:4;stroke-linecap:round;stroke-linejoin:round;stroke-miterlimit:10;}
	.st115{fill:#6D7577;}
	.st116{fill:#7C8587;}
	.st117{fill:#F7C64B;}
	.st118{fill:#F04B4D;}
	.st119{fill:#8BCF1B;}
	.st120{fill:#494949;}
	.st121{fill:#FFCE00;}
	.st122{fill:#C11F36;}
	.st123{fill:#FF8F1F;}
	.st124{fill:#A0D82A;}
	.st125{fill:#2C8ACA;}
	.st126{fill:#36A0D4;}
	.st127{fill:#FEA42A;}
	.st128{fill:#CC2540;}
	.st129{fill:#C1C1C1;}
	.st130{fill:#2DA6E1;}
	.st131{fill:none;stroke:#1EC656;stroke-width:4;stroke-linecap:round;stroke-linejoin:round;stroke-miterlimit:10;}
	.st132{fill:none;stroke:#E02F2F;stroke-width:4;stroke-linecap:round;stroke-linejoin:round;stroke-miterlimit:10;}
	.st133{fill:none;stroke:#E2E2E2;stroke-width:4;stroke-linecap:round;stroke-linejoin:round;stroke-miterlimit:10;}
	.st134{fill:none;stroke:#C11F36;stroke-width:6;stroke-linecap:round;stroke-linejoin:round;stroke-miterlimit:10;}
	.st135{fill:none;stroke:#FF8F1F;stroke-width:6;stroke-linecap:round;stroke-linejoin:round;stroke-miterlimit:10;}
	.st136{fill:none;stroke:#EFC91F;stroke-width:6;stroke-linecap:round;stroke-linejoin:round;stroke-miterlimit:10;}
	.st137{fill:none;stroke:#A7C350;stroke-width:6;stroke-linecap:round;stroke-linejoin:round;stroke-miterlimit:10;}
	.st138{fill:none;stroke:#56B76F;stroke-width:6;stroke-linecap:round;stroke-linejoin:round;stroke-miterlimit:10;}
	.st139{fill:none;stroke:#00E384;stroke-width:6;stroke-linecap:round;stroke-linejoin:round;stroke-miterlimit:10;}
</style><path class="st14" d="M94.3,30.4c8.9,0,16,7.7,16,17.3c0,8.3-5.5,15.3-12.7,16.9c-1.1,0.2-2.2,0.4-3.3,0.4c-1.4,0-2.7-0.2-4-0.5  c-6.9-1.9-12-8.7-12-16.7C78.3,38.2,85.4,30.4,94.3,30.4z"/><path class="st48" d="M87.3,48.7c0-9,6.7-16.3,15.1-16.3c-2.2-1.2-4.7-1.9-7.4-1.9c-8.9,0-16,7.7-16,17.3c0,8.3,5.5,15.3,12.8,16.9  c1,0.2,2.1,0.3,3.3,0.3c1.3,0,2.6-0.2,3.8-0.5C92.1,62.7,87.3,56.3,87.3,48.7z"/><path class="st49" d="M124.1,81.4c0,5.6-13,10.2-29.1,10.2c-7.5,0-14.3-1-19.5-2.6c-5.9-1.9-9.6-4.5-9.7-7.5c0,0,0,0,0-0.1  c0-0.1,0-0.2,0-0.3c0,0,0,0,0,0c0.3-5.5,9.2-15.6,24.3-16.1l3.4,0.1h0l4.2,0.1C113.2,65.6,124.1,75.9,124.1,81.4z"/><path class="st50" d="M75.5,89c-5.9-1.9-9.6-4.5-9.7-7.5c0-0.1,0-0.4,0-0.4c0.3-5.5,9.2-15.6,24.3-16.1l3.4,0.1  C81.3,68.3,74.9,85,75.5,89z"/><path class="st51" d="M95.5,91.6c-1.9-6.5-10.2-15.2-22.7-20.6c-4.3,3.3-6.8,7.3-6.9,10.2c0,0,0,0,0,0c0,0.1,0,0.2,0,0.3  c0,0,0,0,0,0.1c0.1,3,3.8,5.7,9.7,7.5c5.2,1.6,12,2.6,19.5,2.6C95.2,91.6,95.4,91.6,95.5,91.6z"/><path class="st3" d="M80.6,67.3c-9,3.5-14.7,10.1-14.7,14.1C65.9,87,78.9,92,95,92s29.1-5,29.1-10.6c0-5.5-10.7-16-26.2-16.4"/><path class="st3" d="M90.3,64.4c-6.9-1.9-12-8.7-12-16.7c0-9.5,7.2-17.3,16-17.3s16,7.7,16,17.3c0,8.3-5.5,15.3-12.7,16.9  c-1.1,0.2-2.2,0.4-3.3,0.4C92.9,65,91.5,64.8,90.3,64.4z"/><path class="st14" d="M44,23c12.2,0,22,10.6,22,23.7c0,11.4-7.5,21-17.5,23.2c-1.5,0.3-3,0.5-4.5,0.5c-1.9,0-3.7-0.3-5.5-0.7  C29,67.1,22,57.8,22,46.7C22,33.6,31.8,23,44,23z"/><path class="st48" d="M34.4,48.1c0-12.3,9.2-22.3,20.7-22.4C52,24,48.6,23,44.9,23c-12.2,0-22,10.6-22,23.7c0,11.4,7.5,21,17.5,23.3  c1.4,0.3,2.9,0.5,4.5,0.5c1.8,0,3.5-0.2,5.2-0.7C41.1,67.4,34.4,58.6,34.4,48.1z"/><path class="st54" d="M85,93c0,7.7-17.9,14-40,14c-10.3,0-19.6-1.4-26.7-3.6C10.2,100.9,5.1,97.2,5,93.1c0,0,0-0.1,0-0.1  c0-0.1,0-0.2,0-0.4c0,0,0,0,0-0.1C5.4,85,17.7,71.2,38.4,70.5l4.6,0.1h0l5.7,0.1C70,71.3,85,85.5,85,93z"/><path class="st55" d="M18.3,103.4C10.2,100.9,5.1,97.2,5,93.1c0-0.2,0-0.5,0-0.5C5.4,85,17.7,71.2,38.4,70.5l4.6,0.1  C26.2,75.1,17.4,98,18.3,103.4z"/><path class="st3" d="M25.2,73.6C12.8,78.4,5,87.5,5,93c0,7.7,17.9,14,40,14s40-6.3,40-14c0-7.5-14.7-21.9-36-22.5"/><path class="st3" d="M38.5,69.7C29,67.1,22,57.8,22,46.7C22,33.6,31.8,23,44,23s22,10.6,22,23.7c0,11.4-7.5,21-17.5,23.2  c-1.5,0.3-3,0.5-4.5,0.5C42.1,70.5,40.3,70.2,38.5,69.7z"/></svg>