<?xml version="1.0" ?><svg viewBox="0 0 64 64" xmlns="http://www.w3.org/2000/svg"><title/><g data-name="20 shock emoji" id="_20_shock_emoji"><path d="M34.458,1.6l7.765,16.472a2.755,2.755,0,0,0,2.064,1.569L61.65,22.281a2.906,2.906,0,0,1,1.519,4.894L50.605,40a2.952,2.952,0,0,0-.788,2.54l2.966,18.1a2.769,2.769,0,0,1-3.977,3.024L33.275,55.117a2.628,2.628,0,0,0-2.55,0L15.194,63.664a2.769,2.769,0,0,1-3.977-3.024l2.966-18.1A2.952,2.952,0,0,0,13.4,40L.831,27.175A2.906,2.906,0,0,1,2.35,22.281L19.713,19.64a2.755,2.755,0,0,0,2.064-1.569L29.542,1.6A2.689,2.689,0,0,1,34.458,1.6Z" style="fill:#ffcf08"/><ellipse cx="46.5" cy="34" rx="3" ry="2" style="fill:#f990aa"/><ellipse cx="17.5" cy="34" rx="3" ry="2" style="fill:#f990aa"/><ellipse cx="32" cy="44.5" rx="6.5" ry="1.5" style="fill:#ff7438"/><circle cx="25" cy="29" r="4" style="fill:#fff"/><circle cx="39" cy="29" r="4" style="fill:#fff"/><path d="M43,42H21a1,1,0,0,1,0-2H43a1,1,0,0,1,0,2Z" style="fill:#fff"/><path d="M25,30a.991.991,0,0,1-.71-.29,1.169,1.169,0,0,1-.21-.33.942.942,0,0,1,0-.76,1.155,1.155,0,0,1,.21-.33,1.047,1.047,0,0,1,1.42,0,1.155,1.155,0,0,1,.21.33.943.943,0,0,1,0,.76.9.9,0,0,1-.54.54A.852.852,0,0,1,25,30Z" style="fill:#ff7438"/><path d="M39,30a.99.99,0,0,1-1-1,1.045,1.045,0,0,1,.29-.71,1.032,1.032,0,0,1,.33-.21.922.922,0,0,1,.569-.06.609.609,0,0,1,.191.06.568.568,0,0,1,.17.09,1,1,0,0,1,.16.12A1.05,1.05,0,0,1,40,29a1,1,0,0,1-.08.38,1.169,1.169,0,0,1-.21.33A.994.994,0,0,1,39,30Z" style="fill:#ff7438"/></g></svg>