<?xml version="1.0" ?><svg height="512" id="Layer_1" version="1.0" viewBox="0 0 512 512" width="512" xml:space="preserve" xmlns="http://www.w3.org/2000/svg" xmlns:cc="http://creativecommons.org/ns#" xmlns:dc="http://purl.org/dc/elements/1.1/" xmlns:rdf="http://www.w3.org/1999/02/22-rdf-syntax-ns#" xmlns:svg="http://www.w3.org/2000/svg" xmlns:xlink="http://www.w3.org/1999/xlink"><defs id="defs35"><linearGradient gradientTransform="translate(-4.0301469e-5,2.106964e-4)" gradientUnits="userSpaceOnUse" id="linearGradient3037" x1="-4779.0073" x2="-4963.0073" xlink:href="#rect20651_1_" y1="31525.422" y2="31335.422"/><linearGradient gradientTransform="translate(-4.0301469e-5,2.106964e-4)" gradientUnits="userSpaceOnUse" id="linearGradient3039" x1="-4797.8896" x2="-4981.8896" xlink:href="#rect20653_1_" y1="31543.709" y2="31353.709"/><linearGradient gradientTransform="translate(-4.0301469e-5,2.106964e-4)" gradientUnits="userSpaceOnUse" id="linearGradient3041" x1="-4816.772" x2="-5000.772" xlink:href="#rect20655_1_" y1="31561.996" y2="31371.996"/><linearGradient gradientTransform="translate(-4.0301469e-5,2.106964e-4)" gradientUnits="userSpaceOnUse" id="linearGradient3043" x1="-4829.8188" x2="-5013.8188" xlink:href="#path20657_1_" y1="31574.629" y2="31384.629"/><linearGradient gradientTransform="translate(-4.0301469e-5,2.106964e-4)" gradientUnits="userSpaceOnUse" id="linearGradient3045" x1="-5056.479" x2="-4726.479" xlink:href="#path20760_1_" y1="31045.355" y2="31361.355"/></defs><g id="g3014" transform="matrix(0.93749994,0,0,0.93749994,15.998933,16.010154)"><g id="g20840" transform="matrix(0.99448765,0,0,0.99448765,5123.2788,-30846.444)"><linearGradient gradientTransform="translate(-4.030147e-5,2.106964e-4)" gradientUnits="userSpaceOnUse" id="rect20651_1_" x1="-4779.0073" x2="-4963.0073" y1="31525.422" y2="31335.422"><stop id="stop6" offset="0" style="stop-color:#232323;stop-opacity:1"/><stop id="stop8" offset="1" style="stop-color:#636464;stop-opacity:1"/></linearGradient><path d="m -4957.546,31393.639 h 126.596 c 7.06,0 12.784,5.727 12.784,12.787 v 0 c 0,7.059 -5.724,12.785 -12.784,12.785 h -126.596 c -7.061,0 -12.785,-5.727 -12.785,-12.785 v 0 c 0,-7.061 5.725,-12.787 12.785,-12.787 z" id="rect20651" style="fill:url(#linearGradient3037)"/><linearGradient gradientTransform="translate(-4.030147e-5,2.106964e-4)" gradientUnits="userSpaceOnUse" id="rect20653_1_" x1="-4797.8896" x2="-4981.8896" y1="31543.709" y2="31353.709"><stop id="stop12" offset="0" style="stop-color:#232323;stop-opacity:1"/><stop id="stop14" offset="1" style="stop-color:#636464;stop-opacity:1"/></linearGradient><path d="m -4957.546,31431.426 h 126.596 c 7.06,0 12.784,5.725 12.784,12.785 v 0 c 0,7.061 -5.724,12.785 -12.784,12.785 h -126.596 c -7.061,0 -12.785,-5.725 -12.785,-12.785 v 0 c 0,-7.061 5.725,-12.785 12.785,-12.785 z" id="rect20653" style="fill:url(#linearGradient3039)"/><linearGradient gradientTransform="translate(-4.030147e-5,2.106964e-4)" gradientUnits="userSpaceOnUse" id="rect20655_1_" x1="-4816.772" x2="-5000.772" y1="31561.996" y2="31371.996"><stop id="stop18" offset="0" style="stop-color:#232323;stop-opacity:1"/><stop id="stop20" offset="1" style="stop-color:#636464;stop-opacity:1"/></linearGradient><path d="m -4957.546,31469.209 h 126.596 c 7.06,0 12.784,5.725 12.784,12.785 v 0 c 0,7.061 -5.724,12.785 -12.784,12.785 h -126.596 c -7.061,0 -12.785,-5.725 -12.785,-12.785 v 0 c 0,-7.06 5.725,-12.785 12.785,-12.785 z" id="rect20655" style="fill:url(#linearGradient3041)"/><linearGradient gradientTransform="translate(-4.030147e-5,2.106964e-4)" gradientUnits="userSpaceOnUse" id="path20657_1_" x1="-4829.8188" x2="-5013.8188" y1="31574.629" y2="31384.629"><stop id="stop24" offset="0" style="stop-color:#232323;stop-opacity:1"/><stop id="stop26" offset="1" style="stop-color:#636464;stop-opacity:1"/></linearGradient><path d="m -4932.6,31507.006 c -2.821,0.04 -5.65,0.182 -8.514,0.338 10.213,15.014 27.433,24.906 46.959,24.906 19.403,0 36.535,-9.754 46.772,-24.605 -25.869,0.623 -51.888,-0.799 -77.716,-0.449 -2.461,-0.164 -4.975,-0.227 -7.501,-0.188 v 0 z" id="path20657" style="fill:url(#linearGradient3043)"/><linearGradient gradientTransform="translate(-4.030147e-5,2.106964e-4)" gradientUnits="userSpaceOnUse" id="path20760_1_" x1="-5056.479" x2="-4726.479" y1="31045.355" y2="31361.355"><stop id="stop30" offset="0" style="stop-color:#fbdf15;stop-opacity:1"/><stop id="stop32" offset="1" style="stop-color:#f9a91a;stop-opacity:1"/></linearGradient><path d="m -4894.24,31017.412 c -96.257,0.01 -174.318,78.027 -174.318,174.285 0,55.506 29.434,105.928 66.346,141.848 18.122,17.633 27.12,32.297 35.283,47.875 h 52.033 l -59.815,-183.066 c -1.434,-4.18 0.792,-8.73 4.973,-10.164 0.764,-0.262 1.564,-0.408 2.372,-0.43 3.591,-0.105 6.811,2.195 7.875,5.625 l 61.439,188.035 h 3.813 3.781 l 61.439,-188.035 c 1.066,-3.43 4.286,-5.73 7.875,-5.625 4.417,0.123 7.897,3.805 7.773,8.223 -0.022,0.807 -0.168,1.607 -0.43,2.371 l -59.813,183.066 h 52.063 c 8.163,-15.578 17.13,-30.242 35.251,-47.875 36.912,-35.922 66.345,-86.344 66.345,-141.848 0,-96.259 -78.03,-174.269 -174.285,-174.285 l 0,0 z m -22.375,141.379 c 2.751,-0.178 5.545,1.309 6.938,3.688 l 15.438,26.127 15.438,-26.127 c 1.393,-2.381 4.186,-3.865 6.938,-3.688 2.599,0.164 5.055,1.795 6.219,4.125 l 20.625,41.281 c 0.45,0.895 0.717,1.879 0.782,2.877 0.013,0.25 0.013,0.5 0,0.75 -0.133,3.281 -2.696,6.307 -5.907,7.002 -3.211,0.693 -6.772,-1.004 -8.25,-3.938 l -14.5,-28.971 -17.376,29.439 c -0.887,1.504 -2.223,3.25 -3.968,3.25 -1.746,0 -3.083,-1.746 -3.969,-3.25 l -17.375,-29.439 -14.5,28.971 c -1.478,2.934 -5.071,4.631 -8.281,3.938 -3.211,-0.695 -5.743,-3.719 -5.875,-7.002 -0.013,-0.25 -0.013,-0.5 0,-0.75 0.065,-0.998 0.332,-1.98 0.781,-2.877 l 20.625,-41.281 c 1.161,-2.33 3.617,-3.961 6.217,-4.125 z" id="path20760" style="fill:url(#linearGradient3045)"/></g></g></svg>