<?xml version="1.0" ?><svg viewBox="0 0 64 64" xmlns="http://www.w3.org/2000/svg"><title/><g data-name="29 bored emoji" id="_29_bored_emoji"><path d="M34.458,1.6l7.765,16.472a2.755,2.755,0,0,0,2.064,1.569L61.65,22.281a2.906,2.906,0,0,1,1.519,4.894L50.605,40a2.952,2.952,0,0,0-.788,2.54l2.966,18.1a2.769,2.769,0,0,1-3.977,3.024L33.275,55.117a2.628,2.628,0,0,0-2.55,0L15.194,63.664a2.769,2.769,0,0,1-3.977-3.024l2.966-18.1A2.952,2.952,0,0,0,13.4,40L.831,27.175A2.906,2.906,0,0,1,2.35,22.281L19.713,19.64a2.755,2.755,0,0,0,2.064-1.569L29.542,1.6A2.689,2.689,0,0,1,34.458,1.6Z" style="fill:#ffcf08"/><rect height="4.123" style="fill:#f990aa" transform="translate(-7.943 5.538) rotate(-14.05)" width="1.999" x="17.5" y="32.938"/><rect height="4.123" style="fill:#f990aa" transform="translate(-7.824 6.509) rotate(-14.05)" width="1.999" x="21.5" y="32.938"/><rect height="1.999" style="fill:#f990aa" transform="translate(0.501 70.642) rotate(-75.95)" width="4.123" x="43.438" y="34"/><rect height="1.999" style="fill:#f990aa" transform="translate(-2.528 66.762) rotate(-75.95)" width="4.123" x="39.438" y="34"/><path d="M21,50a1,1,0,0,1-.907-1.419c2.6-5.643,7.455-9.083,14.027-9.947a26.772,26.772,0,0,1,9.123.4,1,1,0,0,1,.728,1.211,1.01,1.01,0,0,1-1.211.73,25.237,25.237,0,0,0-8.438-.347c-5.91.795-10.087,3.754-12.413,8.795A1,1,0,0,1,21,50Z" style="fill:#fff"/><circle cx="25" cy="28" r="3" style="fill:#fff"/><path d="M25,29a.991.991,0,0,1-.71-.29,1.169,1.169,0,0,1-.21-.33.942.942,0,0,1,0-.76,1.155,1.155,0,0,1,.21-.33,1.047,1.047,0,0,1,1.42,0,1.155,1.155,0,0,1,.21.33.943.943,0,0,1,0,.76.9.9,0,0,1-.54.54A1,1,0,0,1,25,29Z" style="fill:#ff7438"/><circle cx="39" cy="28" r="3" style="fill:#fff"/><path d="M39,29a.991.991,0,0,1-.71-.29,1.169,1.169,0,0,1-.21-.33.942.942,0,0,1,0-.76,1.155,1.155,0,0,1,.21-.33,1.047,1.047,0,0,1,1.42,0,1.155,1.155,0,0,1,.21.33.943.943,0,0,1,0,.76.9.9,0,0,1-.54.54A1,1,0,0,1,39,29Z" style="fill:#ff7438"/></g></svg>