<?xml version="1.0" ?><!DOCTYPE svg  PUBLIC '-//W3C//DTD SVG 1.1//EN'  'http://www.w3.org/Graphics/SVG/1.1/DTD/svg11.dtd'><svg enable-background="new 0 0 128 128" height="128px" id="Layer_1" version="1.1" viewBox="0 0 128 128" width="128px" xml:space="preserve" xmlns="http://www.w3.org/2000/svg" xmlns:xlink="http://www.w3.org/1999/xlink"><circle cx="64" cy="64" fill="#50AF00" r="64"/><path d="M101.832,61.161L74.544,33.884c-1.556-1.555-4.103-1.555-5.657,0.001l-2.824,2.824  c-1.557,1.556-1.555,4.101,0,5.657L81.7,57.996H29c-2.2,0-4,1.8-4,4v4c0,2.199,1.8,4,4,4h52.686L66.051,85.631  c-1.557,1.557-1.557,4.102,0,5.656l2.828,2.828c1.557,1.556,4.102,1.556,5.656,0l27.298-27.299  C103.391,65.26,103.389,62.715,101.832,61.161z" fill="#FFFFFF"/></svg>