<?xml version="1.0" ?><svg id="arrow_x5F_reload_x5F_fail" style="enable-background:new 0 0 32 32;" version="1.1" viewBox="0 0 32 32" xml:space="preserve" xmlns="http://www.w3.org/2000/svg" xmlns:xlink="http://www.w3.org/1999/xlink"><g><g><g><polygon points="28,32 20,32 20,24 22,24 22,30 28,30    " style="fill:#FD5C3F;"/></g><g><g><path d="M12.801,31.679C5.384,30.173,0,23.579,0,16C0,7.177,7.178,0,16,0s16,7.177,16,16      c0,6.365-3.77,12.123-9.604,14.67l-0.8-1.833C26.701,26.608,30,21.57,30,16c0-7.72-6.28-14-14-14S2,8.28,2,16      c0,6.632,4.71,12.401,11.199,13.719L12.801,31.679z" style="fill:#FD5C3F;"/></g><g><path d="M13,30.699" style="fill:none;stroke:#FD5C3F;stroke-width:2;stroke-miterlimit:10;"/></g></g></g><g><g><rect height="2" style="fill:#FD5C3F;" transform="matrix(0.7071 -0.7071 0.7071 0.7071 -6.6274 16)" width="11.314" x="10.343" y="15"/></g><g><rect height="11.314" style="fill:#FD5C3F;" transform="matrix(0.7071 -0.7071 0.7071 0.7071 -6.6274 16)" width="2" x="15" y="10.343"/></g></g></g></svg>