<?xml version="1.0" ?><svg id="Flat" viewBox="0 0 340 340" xmlns="http://www.w3.org/2000/svg"><title/><ellipse cx="79.292" cy="26.614" rx="17.294" ry="18.373" style="fill:#6c7887"/><path d="M79.292,24.552c-23.786,0-43.068,20.486-43.068,45.757A48.567,48.567,0,0,0,37.481,81.29H121.1a48.567,48.567,0,0,0,1.257-10.981C122.36,45.038,103.078,24.552,79.292,24.552Z" style="fill:#6c7887"/><path d="M102.517,31.784c-.942,4.417-3.838,8.976-10.786,12.138a29.453,29.453,0,0,1-11.86,2.528,151.876,151.876,0,0,0-40.2,5.91,48.055,48.055,0,0,0-3.443,17.949A48.567,48.567,0,0,0,37.481,81.29H121.1a48.567,48.567,0,0,0,1.257-10.981A46.45,46.45,0,0,0,102.517,31.784Z" style="fill:#434e5b"/><path d="M258.67,76.141S270.222,65.1,273.691,50.912c0,0,17.2.86,32.012,10.974,17.082,11.663,24.546,33.919,21.445,54.369a128.5,128.5,0,0,1-9.666,33.7,29.37,29.37,0,0,0-2.253,18.725c1.469,6.469,5.492,13.614,15.343,17.941a2.5,2.5,0,0,1,1.353,3.186c-1.772,4.627-7.258,14.654-21.928,16.511H281.575Z" style="fill:#ffd28a"/><path d="M109.89,56.276l-2.666,16.21a7.628,7.628,0,0,1-6.656,6.617,7.418,7.418,0,0,1-7.72-7.65v-10.5a6.674,6.674,0,0,0-6.382-6.864c-4.385-.051-9.963-.051-14.348,0a6.674,6.674,0,0,0-6.382,6.864V71.179c0,3.935-2.682,7.433-6.361,7.889a7.3,7.3,0,0,1-7.968-6.3l-2.713-16.5C36.1,58.51,29.25,61.51,29.25,61.51A117.226,117.226,0,0,0,36,96.953c18.666,5.486,17.078,24.895,17.078,24.895H105.5s-1.588-19.409,17.078-24.895a117.226,117.226,0,0,0,6.752-35.443S122.481,58.51,109.89,56.276Z" style="fill:#6c7887"/><path d="M111.841,121.848h-65.1c-5.81,0-10.519,5-10.519,11.176h0c0,6.172,4.709,11.176,10.519,11.176h65.1c5.81,0,10.519-5,10.519-11.176h0C122.36,126.851,117.651,121.848,111.841,121.848Z" style="fill:#6c7887"/><path d="M103.707,144.2H54.877c4.037,67.862-18.653,108.306-18.653,108.306H122.36S99.67,212.062,103.707,144.2Z" style="fill:#6c7887"/><rect height="17.485" style="fill:#6c7887" width="104.104" x="27.24" y="252.506"/><path d="M131.111,269.991H27.473c-10.8,0-19.563,9.305-19.563,20.783h0c0,11.479,8.759,20.784,19.563,20.784H131.111c10.8,0,19.563-9.305,19.563-20.784h0C150.674,279.3,141.915,269.991,131.111,269.991Z" style="fill:#6c7887"/><path d="M131.111,311.558H27.473s-10.882,5.2-11.177,20.2H142.288C141.993,316.761,131.111,311.558,131.111,311.558Z" style="fill:#6c7887"/><path d="M322.352,239.1a16.7,16.7,0,0,0-6.334-8.113c-4.03-2.834-10.477-9.705-10.477-24.662h-63.47c0,14.957-6.447,21.828-10.477,24.662a16.7,16.7,0,0,0-6.334,8.113c-4.565,13.275,9.3,15.62,9.3,15.62h78.5S326.917,252.37,322.352,239.1Z" style="fill:#ffd28a"/><path d="M313.057,254.715h-78.5s-11.97,3.9-11.97,19.487H325.028C325.028,258.613,313.057,254.715,313.057,254.715Z" style="fill:#ffd28a"/><path d="M179.156,177.7H160.649l-9.43,16.7a6.883,6.883,0,0,0,5.993,10.269h25.38a6.883,6.883,0,0,0,5.994-10.269Z" style="fill:#434e5b"/><circle cx="169.902" cy="162.252" r="19.857" style="fill:#434e5b"/><rect height="20.05" style="fill:#434e5b" width="16.965" x="161.42" y="204.665"/><path d="M193.4,238.862l-15.019-14.147H161.42L146.4,238.862a7.9,7.9,0,0,0,5.414,13.644H187.99a7.9,7.9,0,0,0,5.414-13.644Z" style="fill:#434e5b"/><path d="M318.823,108.792l9-.447a61.813,61.813,0,0,0-.362-7.992l-8.834.439a4.18,4.18,0,0,1-4.285-3.4,39.709,39.709,0,0,0-13.5-23.173,4.182,4.182,0,0,1-1.091-5.106L304,60.772a59.634,59.634,0,0,0-7.048-3.789l-3.96,7.773a4.125,4.125,0,0,1-5.078,2.021,45.725,45.725,0,0,0-15.675-2.742c-1.415,0-2.846.079-4.269.2a64.3,64.3,0,0,1-9.295,11.9l22.9,130.179H310a29.61,29.61,0,0,0,9.4-2.729l-4.4-3.518a56.922,56.922,0,0,1-13-16.58,4.128,4.128,0,0,1,2.584-5.792l12.513-3.6a26.053,26.053,0,0,1-1.863-5.414c-.17-.749-.3-1.5-.4-2.259l-11.778,3.394a4.15,4.15,0,0,1-5.3-4.119,31.305,31.305,0,0,1,.474-4.49,144.339,144.339,0,0,1,4.969-17.244,4.152,4.152,0,0,1,5.639-2.384l10.246,4.7c1.033-2.511,1.962-5.031,2.783-7.524l-10.053-4.609a4.131,4.131,0,0,1-1.968-5.648l.02-.039a47.3,47.3,0,0,0,5.066-16.106A4.113,4.113,0,0,1,318.823,108.792Z" style="fill:#e89f64"/><path d="M208.586,101.426l-1.244,14.918,13.5,8.179s5.317-11.86,29.856-7.361c0,0,0,5.725,7.361,11.042,0,0-20.737,23.978-31.352,44.246a14.118,14.118,0,0,0-.089,13.006c2.366,4.6,5.245,11.463,5.942,18.642a2.449,2.449,0,0,0,2.435,2.222H310s-24.539-19.631-19.631-46.624a148.489,148.489,0,0,1,12.4-34.947,38.353,38.353,0,0,0,4.44-20.389c-.622-9.013-4.126-20.116-16.032-27.242a37.475,37.475,0,0,0-23.288-4.849c-10.257,1.106-28.117,4.52-49.564,14.9A17.434,17.434,0,0,0,208.586,101.426Z" style="fill:#ffd28a"/><path d="M273.848,128.458a24.945,24.945,0,0,1-15.792-.254s-3.85,4.454-9.078,11.137c15.251,2.642,23.009-4.907,26.11-9.229A1.088,1.088,0,0,0,273.848,128.458Z" style="fill:#e89f64"/><path d="M265.543,97.733a4,4,0,0,1-1.385-7.754l5.628-2.076a4,4,0,0,1,2.769,7.506l-5.628,2.076A4,4,0,0,1,265.543,97.733Z" style="fill:#e89f64"/><path d="M306.324,214.69a43.053,43.053,0,0,1-.783-8.37h-63.47a42.975,42.975,0,0,1-.783,8.37Z" style="fill:#e89f64"/><path d="M313.057,254.715H297.43s11.149,4.13,12.444,19.487h15.154C325.028,258.613,313.057,254.715,313.057,254.715Z" style="fill:#e89f64"/><path d="M297.43,254.715h15.627s13.86-2.345,9.295-15.62a16.7,16.7,0,0,0-6.334-8.113c-4.03-2.834-10.477-9.705-10.477-24.662H288.582c.251,7.227,1.862,17.33,7.89,25.97a17.457,17.457,0,0,0,1.78,2.108C300.863,237.105,308.178,246.255,297.43,254.715Z" style="fill:#e89f64"/><path d="M290.636,175.39c-.009-.042-.017-.084-.026-.125l-.012,0Z" style="fill:#e89f64"/><path d="M263.646,206.32H310s-13.749-11-18.605-27.856c1.576,7.847,3.062,27.43-21.357,27.43A46.637,46.637,0,0,0,263.646,206.32Z" style="fill:#e89f64"/><path d="M123.368,59.436c-.24,5.036-1.249,15.671-5.47,24.044a15.841,15.841,0,0,1-7.429,7.221c-6.335,2.956-19.055,11.343-19.46,31.147h14.5s-1.588-19.409,17.078-24.895a117.226,117.226,0,0,0,6.752-35.443A59.536,59.536,0,0,0,123.368,59.436Z" style="fill:#434e5b"/><path d="M103.707,144.2H54.877q.265,4.463.378,8.762H75.933a15.2,15.2,0,0,1,15.2,14.721c.7,21.732,1.338,58.784,16.318,84.823h14.91S99.67,212.062,103.707,144.2Z" style="fill:#434e5b"/><rect height="17.485" style="fill:#434e5b" width="34.07" x="97.274" y="252.506"/><path d="M131.111,311.558H97.274s17.035,5.647,17.035,20.2h27.979C141.993,316.761,131.111,311.558,131.111,311.558Z" style="fill:#434e5b"/><path d="M97.274,311.558h33.837c10.8,0,19.563-9.305,19.563-20.784h0c0-11.478-8.759-20.783-19.563-20.783H97.274s17.035,5.294,17.035,20.783C114.309,290.774,114.349,305.366,97.274,311.558Z" style="fill:#434e5b"/><path d="M100.2,133.024A11.954,11.954,0,0,1,91.009,144.2h20.832c5.81,0,10.519-5,10.519-11.176h0c0-6.173-4.709-11.176-10.519-11.176H91.009S100.2,123.515,100.2,133.024Z" style="fill:#434e5b"/></svg>