<?xml version="1.0" ?><svg data-name="Layer 2" id="Layer_2" viewBox="0 0 512 512" xmlns="http://www.w3.org/2000/svg"><defs><style>.cls-1{fill:#ffbc64;}.cls-2{fill:#ff6e6e;}.cls-3{fill:#5991ad;}.cls-4{fill:#286477;}.cls-5{fill:#c44;}.cls-6{fill:#d37e29;}</style></defs><title/><path class="cls-1" d="M371.47,214.52h46.65a10.79,10.79,0,0,1,10.79,10.79v230a0,0,0,0,1,0,0H360.68a0,0,0,0,1,0,0v-230A10.79,10.79,0,0,1,371.47,214.52Z"/><path class="cls-2" d="M235.64,296.5h46.65a10.79,10.79,0,0,1,10.79,10.79v148a0,0,0,0,1,0,0H224.85a0,0,0,0,1,0,0v-148A10.79,10.79,0,0,1,235.64,296.5Z"/><path class="cls-2" d="M99.81,382.45h46.65a10.79,10.79,0,0,1,10.79,10.79v62a0,0,0,0,1,0,0H89a0,0,0,0,1,0,0v-62A10.79,10.79,0,0,1,99.81,382.45Z"/><path class="cls-3" d="M397.93,56.77l-67,7.6a9.25,9.25,0,0,0-5.5,15.74l11.63,11.63-72.27,70.42-49.3-49.3a10.39,10.39,0,0,0-14.55-.13L86.26,223.45a10.39,10.39,0,0,0-.13,14.81l22.33,22.33a10.38,10.38,0,0,0,14.52.15l85-81.45,49.63,49.63a10.38,10.38,0,0,0,14.62.06L374.08,128.75l10.36,10.36a9.25,9.25,0,0,0,15.74-5.44l8-66.6A9.26,9.26,0,0,0,397.93,56.77Z"/><path class="cls-4" d="M404,58.2l-16.1,44.72a5.38,5.38,0,0,1-9.17,1.66h0a5.38,5.38,0,0,0-7.82-.43l-98.53,93.52a12.39,12.39,0,0,1-17,.09l-38.51-35.82a12.38,12.38,0,0,0-17,.08l-95.61,90.75a16.48,16.48,0,0,1-2,1.7l6.12,6.12a10.38,10.38,0,0,0,14.52.15l85-81.45,49.63,49.63a10.38,10.38,0,0,0,14.62.06L374.08,128.75l10.36,10.36a9.25,9.25,0,0,0,15.74-5.44l8-66.6A9.24,9.24,0,0,0,404,58.2Z"/><path class="cls-5" d="M127,432.94a18.21,18.21,0,0,1-18.22-18.21V382.45h-9A10.79,10.79,0,0,0,89,393.24v62.05h68.23V432.94Z"/><path class="cls-5" d="M264,432.94a18.21,18.21,0,0,1-18.21-18.21V296.5H235.64a10.79,10.79,0,0,0-10.79,10.79v148h68.23V432.94Z"/><path class="cls-6" d="M401,432.94a18.21,18.21,0,0,1-18.22-18.21V214.52h-11.3a10.79,10.79,0,0,0-10.79,10.79v230h68.23V432.94Z"/></svg>